#define qmark_width 16
#define qmark_height 16
static char qmark_bits[] = {
   0x00, 0x00, 0xf8, 0x0f, 0xfc, 0x1f, 0xfc, 0x1f, 0x1c, 0x1c, 0x00, 0x1c,
   0x00, 0x1e, 0x00, 0x0f, 0x80, 0x07, 0xc0, 0x03, 0xc0, 0x01, 0xc0, 0x01,
   0xc0, 0x01, 0x00, 0x00, 0xc0, 0x01, 0xc0, 0x01};
