#define quit_width 16
#define quit_height 16
static char quit_bits[] = {
   0x00, 0x00, 0xf8, 0x0f, 0xfc, 0x1f, 0xfc, 0x1f, 0x1c, 0x1c, 0x1c, 0x1c,
   0x1c, 0x1c, 0x1c, 0x1c, 0x1c, 0x1c, 0xdc, 0x1c, 0xdc, 0x1d, 0xfc, 0x1b,
   0xfc, 0x17, 0xf8, 0x0f, 0x00, 0x1c, 0x00, 0x38};
