#define colon_width 17
#define colon_height 72
static char colon_bits[] = {
   0x00, 0x00, 0x00, 0x00, 0x00, 0x00, 0x00, 0x00, 0x00, 0x00, 0x00, 0x00,
   0x00, 0x00, 0x00, 0x00, 0x00, 0x00, 0x00, 0x00, 0x00, 0x00, 0x00, 0x00,
   0x00, 0x00, 0x00, 0x00, 0x00, 0x00, 0x00, 0x00, 0x00, 0x00, 0x00, 0x00,
   0x00, 0x00, 0x00, 0x00, 0x00, 0x00, 0x00, 0x00, 0x00, 0x00, 0x00, 0x00,
   0x00, 0x00, 0x00, 0x00, 0x00, 0x00, 0x00, 0x00, 0x00, 0x00, 0x00, 0x00,
   0xc0, 0x07, 0x00, 0xf0, 0x1f, 0x00, 0xf8, 0x3f, 0x00, 0xf8, 0x3f, 0x00,
   0xfc, 0x7f, 0x00, 0xfc, 0x7f, 0x00, 0xfc, 0x7f, 0x00, 0xfc, 0x7f, 0x00,
   0xfc, 0x7f, 0x00, 0xf8, 0x3f, 0x00, 0xf8, 0x3f, 0x00, 0xf0, 0x1f, 0x00,
   0xc0, 0x07, 0x00, 0x00, 0x00, 0x00, 0x00, 0x00, 0x00, 0x00, 0x00, 0x00,
   0x00, 0x00, 0x00, 0x00, 0x00, 0x00, 0x00, 0x00, 0x00, 0x00, 0x00, 0x00,
   0xc0, 0x07, 0x00, 0xf0, 0x1f, 0x00, 0xf8, 0x3f, 0x00, 0xf8, 0x3f, 0x00,
   0xfc, 0x7f, 0x00, 0xfc, 0x7f, 0x00, 0xfc, 0x7f, 0x00, 0xfc, 0x7f, 0x00,
   0xfc, 0x7f, 0x00, 0xf8, 0x3f, 0x00, 0xf8, 0x3f, 0x00, 0xf0, 0x1f, 0x00,
   0xc0, 0x07, 0x00, 0x00, 0x00, 0x00, 0x00, 0x00, 0x00, 0x00, 0x00, 0x00,
   0x00, 0x00, 0x00, 0x00, 0x00, 0x00, 0x00, 0x00, 0x00, 0x00, 0x00, 0x00,
   0x00, 0x00, 0x00, 0x00, 0x00, 0x00, 0x00, 0x00, 0x00, 0x00, 0x00, 0x00,
   0x00, 0x00, 0x00, 0x00, 0x00, 0x00, 0x00, 0x00, 0x00, 0x00, 0x00, 0x00,
   0x00, 0x00, 0x00, 0x00, 0x00, 0x00, 0x00, 0x00, 0x00, 0x00, 0x00, 0x00};
