#define eng_width 64
#define eng_height 64
#define eng_x_hot 31
#define eng_y_hot 31
static char eng_bits[] = {
   0x00, 0x00, 0x00, 0x00, 0x00, 0x00, 0x00, 0x00, 0x00, 0x00, 0x00, 0xfc,
   0x1f, 0x00, 0x00, 0x00, 0x00, 0x00, 0xc0, 0xff, 0xff, 0x01, 0x00, 0x00,
   0x00, 0x00, 0xf8, 0x03, 0xe0, 0x0f, 0x00, 0x00, 0x00, 0x00, 0x36, 0xc0,
   0x01, 0x36, 0x00, 0x00, 0x00, 0x00, 0x0d, 0xc0, 0x01, 0x58, 0x00, 0x00,
   0x00, 0xc0, 0x03, 0x80, 0x00, 0xe0, 0x01, 0x00, 0x00, 0xe0, 0x00, 0x80,
   0x00, 0x80, 0x03, 0x00, 0x00, 0x38, 0x00, 0x00, 0x00, 0x00, 0x0e, 0x00,
   0x00, 0x14, 0x00, 0xc0, 0x00, 0x00, 0x14, 0x00, 0x00, 0x0a, 0x00, 0x20,
   0x01, 0x00, 0x28, 0x00, 0x00, 0x05, 0x00, 0x20, 0x01, 0x00, 0x52, 0x00,
   0x00, 0x03, 0x00, 0x20, 0x01, 0x00, 0x66, 0x00, 0x80, 0x01, 0x00, 0x20,
   0x01, 0x00, 0xce, 0x00, 0xc0, 0x00, 0x00, 0x20, 0x01, 0x00, 0x83, 0x01,
   0xc0, 0x00, 0x00, 0x20, 0x01, 0x00, 0x80, 0x01, 0x60, 0x00, 0x00, 0xc0,
   0x00, 0x00, 0x00, 0x03, 0x50, 0x00, 0x00, 0x00, 0x00, 0x00, 0x00, 0x05,
   0x30, 0x00, 0x00, 0x00, 0x00, 0x00, 0x00, 0x06, 0x28, 0x00, 0x00, 0x00,
   0x00, 0x00, 0x00, 0x0a, 0x18, 0x00, 0x00, 0x00, 0x00, 0x00, 0x00, 0x0c,
   0x18, 0x00, 0x00, 0x00, 0x00, 0x00, 0x00, 0x0c, 0x0c, 0x00, 0x00, 0x00,
   0x00, 0x00, 0x00, 0x18, 0x0c, 0x00, 0x00, 0x00, 0x00, 0x00, 0x00, 0x18,
   0x0c, 0x00, 0x00, 0x00, 0x00, 0x00, 0x00, 0x18, 0x0c, 0x00, 0x00, 0x00,
   0x00, 0x00, 0x00, 0x18, 0x06, 0x00, 0x00, 0x00, 0x00, 0x00, 0x00, 0x30,
   0x06, 0x62, 0x0c, 0x00, 0x00, 0x80, 0x31, 0x30, 0x06, 0x93, 0x12, 0x00,
   0x00, 0x40, 0x48, 0x30, 0x06, 0x92, 0x12, 0x00, 0x00, 0x40, 0x48, 0x30,
   0x76, 0x92, 0x12, 0x00, 0x00, 0xc0, 0x49, 0x37, 0x56, 0x92, 0x12, 0x80,
   0x00, 0x40, 0x4a, 0x35, 0x76, 0x92, 0x12, 0x00, 0x00, 0x40, 0x4a, 0x37,
   0x06, 0x92, 0x12, 0x00, 0x00, 0x40, 0x4a, 0x30, 0x06, 0x67, 0x0c, 0x00,
   0x00, 0x80, 0x31, 0x30, 0x06, 0x00, 0x00, 0x00, 0x00, 0x00, 0x00, 0x30,
   0x06, 0x00, 0xc0, 0x39, 0x91, 0x05, 0x00, 0x30, 0x0c, 0x00, 0x40, 0x4a,
   0x91, 0x04, 0x00, 0x18, 0x0c, 0x00, 0x40, 0x4a, 0x1b, 0x02, 0x00, 0x18,
   0x0c, 0x00, 0x40, 0x4a, 0x15, 0x02, 0x00, 0x18, 0x0c, 0x00, 0xc0, 0x39,
   0x15, 0x01, 0x00, 0x18, 0x18, 0x00, 0x40, 0x09, 0x91, 0x00, 0x00, 0x0c,
   0x18, 0x00, 0x40, 0x0a, 0x91, 0x06, 0x00, 0x0c, 0x28, 0x00, 0x40, 0x0a,
   0x11, 0x06, 0x00, 0x0a, 0x30, 0x00, 0x00, 0x00, 0x00, 0x00, 0x00, 0x06,
   0x50, 0x00, 0x00, 0x00, 0x00, 0x00, 0x00, 0x05, 0x60, 0x00, 0x00, 0x00,
   0x00, 0x00, 0x00, 0x03, 0xc0, 0x00, 0x00, 0x30, 0x06, 0x00, 0x80, 0x01,
   0xc0, 0x40, 0x00, 0x48, 0x09, 0x00, 0x81, 0x01, 0x80, 0x79, 0x00, 0x48,
   0x09, 0x00, 0xcf, 0x00, 0x00, 0x33, 0x00, 0x30, 0x09, 0x00, 0x66, 0x00,
   0x00, 0x25, 0x00, 0x48, 0x09, 0x00, 0x52, 0x00, 0x00, 0x0a, 0x00, 0x48,
   0x09, 0x00, 0x28, 0x00, 0x00, 0x14, 0x00, 0x48, 0x09, 0x00, 0x14, 0x00,
   0x00, 0x38, 0x00, 0x30, 0x06, 0x00, 0x0e, 0x00, 0x00, 0xe0, 0x00, 0x80,
   0x00, 0x80, 0x03, 0x00, 0x00, 0xc0, 0x03, 0x80, 0x00, 0xe0, 0x01, 0x00,
   0x00, 0x00, 0x0d, 0x40, 0x01, 0x58, 0x00, 0x00, 0x00, 0x00, 0x36, 0xc0,
   0x01, 0x36, 0x00, 0x00, 0x00, 0x00, 0xf8, 0x03, 0xe0, 0x0f, 0x00, 0x00,
   0x00, 0x00, 0xc0, 0xff, 0xff, 0x01, 0x00, 0x00, 0x00, 0x00, 0x00, 0xfc,
   0x1f, 0x00, 0x00, 0x00, 0x00, 0x00, 0x00, 0x00, 0x00, 0x00, 0x00, 0x00,
   0x00, 0x00, 0x00, 0x00, 0x00, 0x00, 0x00, 0x00};
