#define handleDn_width 32
#define handleDn_height 75
static char handleDn_bits[] = {
   0x00, 0x00, 0x00, 0x00, 0x00, 0x00, 0x00, 0x00, 0x00, 0x00, 0x00, 0x00,
   0x00, 0x00, 0x00, 0x00, 0x00, 0x00, 0x00, 0x00, 0x00, 0x00, 0x00, 0x00,
   0x00, 0x00, 0x00, 0x00, 0x00, 0x00, 0x00, 0x00, 0x00, 0x00, 0x00, 0x00,
   0x00, 0x00, 0x00, 0x00, 0x00, 0x00, 0x00, 0x00, 0x00, 0x00, 0x00, 0x00,
   0x00, 0x00, 0x00, 0x00, 0x00, 0x00, 0x00, 0x00, 0x00, 0x00, 0x00, 0x00,
   0x00, 0x00, 0x00, 0x00, 0x00, 0x00, 0x00, 0x00, 0x00, 0x00, 0x00, 0x00,
   0x00, 0x00, 0x00, 0x00, 0x00, 0x00, 0x00, 0x00, 0x00, 0x00, 0x00, 0x00,
   0x00, 0x00, 0x00, 0x00, 0x00, 0x00, 0x00, 0x00, 0x00, 0x00, 0x00, 0x00,
   0x00, 0x00, 0x00, 0x00, 0x00, 0x00, 0x00, 0x00, 0x00, 0x1e, 0x00, 0x00,
   0x00, 0x2f, 0x00, 0x00, 0x00, 0x3d, 0x00, 0x00, 0x00, 0x2d, 0x00, 0x00,
   0x00, 0x2d, 0x00, 0x00, 0x00, 0x3d, 0x00, 0x00, 0x00, 0x3d, 0x00, 0x00,
   0x00, 0x2d, 0x00, 0x00, 0x00, 0x2d, 0x00, 0x00, 0x00, 0x2d, 0x00, 0x00,
   0x00, 0x21, 0x00, 0x00, 0x00, 0x2d, 0x00, 0x00, 0x00, 0x1e, 0x00, 0x00,
   0x00, 0x00, 0x00, 0x00, 0xf8, 0xff, 0x0f, 0x00, 0xfc, 0xff, 0x1f, 0x00,
   0xfe, 0xff, 0x3f, 0x00, 0xf6, 0xff, 0x37, 0x00, 0xf6, 0xff, 0x37, 0x00,
   0xf6, 0xff, 0x37, 0x00, 0xf6, 0xff, 0x37, 0x00, 0xf6, 0xff, 0x37, 0x00,
   0xf6, 0xff, 0x37, 0x00, 0xf6, 0xff, 0x37, 0x00, 0xf6, 0xff, 0x37, 0x00,
   0xf6, 0xff, 0x37, 0x00, 0xf6, 0xff, 0x37, 0x00, 0xf6, 0xff, 0x37, 0x00,
   0xf6, 0xff, 0x37, 0x00, 0xf6, 0xff, 0x37, 0x00, 0xf6, 0xff, 0x37, 0x00,
   0xf6, 0xff, 0x37, 0x00, 0xf6, 0xff, 0x37, 0x00, 0xf6, 0xff, 0x27, 0x00,
   0xf6, 0xff, 0x27, 0x00, 0xb6, 0xff, 0x36, 0x00, 0x92, 0x9b, 0x36, 0x00,
   0xf2, 0xcb, 0x22, 0x00, 0xb2, 0x89, 0x22, 0x00, 0x52, 0x69, 0x23, 0x00,
   0x52, 0x5b, 0x22, 0x00, 0x52, 0x59, 0x26, 0x00, 0x52, 0x58, 0x26, 0x00,
   0x52, 0x74, 0x27, 0x00, 0x52, 0x57, 0x27, 0x00, 0x5e, 0x00, 0x3d, 0x00,
   0x3c, 0x00, 0x1c, 0x00, 0xf8, 0xff, 0x0f, 0x00, 0x00, 0x00, 0x00, 0x00};
