#define handleUp_width 32
#define handleUp_height 75
static char handleUp_bits[] = {
   0x00, 0x00, 0x00, 0x00, 0xf8, 0xff, 0x0f, 0x00, 0xfc, 0xff, 0x1f, 0x00,
   0xfe, 0xff, 0x3f, 0x00, 0xf6, 0xff, 0x37, 0x00, 0xf6, 0xff, 0x37, 0x00,
   0xf6, 0xff, 0x37, 0x00, 0xf6, 0xff, 0x37, 0x00, 0xf6, 0xff, 0x37, 0x00,
   0xf6, 0xff, 0x37, 0x00, 0xf6, 0xff, 0x37, 0x00, 0xf6, 0xff, 0x37, 0x00,
   0xf6, 0xff, 0x37, 0x00, 0xf6, 0xff, 0x37, 0x00, 0xf6, 0xff, 0x37, 0x00,
   0xf6, 0xff, 0x37, 0x00, 0xf6, 0xff, 0x37, 0x00, 0xf6, 0xff, 0x37, 0x00,
   0xf2, 0xff, 0x37, 0x00, 0xf2, 0xff, 0x35, 0x00, 0xd6, 0xbf, 0x37, 0x00,
   0xd6, 0xaf, 0x37, 0x00, 0x56, 0xbf, 0x27, 0x00, 0x56, 0xb7, 0x26, 0x00,
   0x52, 0xd6, 0x26, 0x00, 0x52, 0xd6, 0x25, 0x00, 0x52, 0xf5, 0x25, 0x00,
   0x92, 0x55, 0x25, 0x00, 0x92, 0x4d, 0x25, 0x00, 0x92, 0x41, 0x25, 0x00,
   0x12, 0x44, 0x25, 0x00, 0x12, 0x01, 0x24, 0x00, 0x5e, 0x00, 0x3c, 0x00,
   0x1c, 0x00, 0x1c, 0x00, 0xf8, 0xff, 0x0f, 0x00, 0x00, 0x2d, 0x00, 0x00,
   0x00, 0x21, 0x00, 0x00, 0x00, 0x2d, 0x00, 0x00, 0x00, 0x1e, 0x00, 0x00,
   0x00, 0x00, 0x00, 0x00, 0x00, 0x00, 0x00, 0x00, 0x00, 0x00, 0x00, 0x00,
   0x00, 0x00, 0x00, 0x00, 0x00, 0x00, 0x00, 0x00, 0x00, 0x00, 0x00, 0x00,
   0x00, 0x00, 0x00, 0x00, 0x00, 0x00, 0x00, 0x00, 0x00, 0x00, 0x00, 0x00,
   0x00, 0x00, 0x00, 0x00, 0x00, 0x00, 0x00, 0x00, 0x00, 0x00, 0x00, 0x00,
   0x00, 0x00, 0x00, 0x00, 0x00, 0x00, 0x00, 0x00, 0x00, 0x00, 0x00, 0x00,
   0x00, 0x00, 0x00, 0x00, 0x00, 0x00, 0x00, 0x00, 0x00, 0x00, 0x00, 0x00,
   0x00, 0x00, 0x00, 0x00, 0x00, 0x00, 0x00, 0x00, 0x00, 0x00, 0x00, 0x00,
   0x00, 0x00, 0x00, 0x00, 0x00, 0x00, 0x00, 0x00, 0x00, 0x00, 0x00, 0x00,
   0x00, 0x00, 0x00, 0x00, 0x00, 0x00, 0x00, 0x00, 0x00, 0x00, 0x00, 0x00,
   0x00, 0x00, 0x00, 0x00, 0x00, 0x00, 0x00, 0x00, 0x00, 0x00, 0x00, 0x00,
   0x00, 0x00, 0x00, 0x00, 0x00, 0x00, 0x00, 0x00, 0x00, 0x00, 0x00, 0x00,
   0x00, 0x00, 0x00, 0x00, 0x00, 0x00, 0x00, 0x00, 0x00, 0x00, 0x00, 0x00};
