#define circle00_width 21
#define circle00_height 21
static char circle00_bits[] = {
   0x00, 0x00, 0x00, 0x80, 0x3f, 0x00, 0xe0, 0xff, 0x00, 0xf0, 0xe0, 0x01,
   0x38, 0x80, 0x03, 0x9c, 0x3f, 0x07, 0xcc, 0x60, 0x06, 0x6e, 0xc0, 0x0e,
   0x26, 0x80, 0x0c, 0x26, 0x80, 0x0c, 0x26, 0x80, 0x0c, 0x26, 0x80, 0x0c,
   0x26, 0x80, 0x0c, 0x6e, 0xc0, 0x0e, 0xcc, 0x60, 0x06, 0x9c, 0x3f, 0x07,
   0x38, 0x80, 0x03, 0xf0, 0xe0, 0x01, 0xe0, 0xff, 0x00, 0x80, 0x3f, 0x00,
   0x00, 0x00, 0x00};
