/* XPM */
static char * barA2.l.xpm [] = {
"5 34 3 2",
"   c #FFFFFFFFFFFF",
".  c #A800A800A800",
"X  c #000",
/* pixels*/
"          ",
"          ",
"    . . . ",
"    . . . ",
"    . . . ",
"    . . . ",
"    . . . ",
"    . . . ",
"    . . . ",
"    . . . ",
"    . . . ",
"    . . . ",
"    . . . ",
"    . . . ",
"    . . . ",
"    . . . ",
"    . . . ",
"    . . . ",
"    . . . ",
"    . . . ",
"    . . . ",
"    . . . ",
"    . . . ",
"    . . . ",
"    . . . ",
"    . . . ",
"    . . . ",
"    . . . ",
"    . . . ",
"    . . . ",
"    . . . ",
"    . . . ",
"  X X X X ",
"X X X X X "};
