/* XPM */
static char * barA2..xpm [] = {
"11 34 4 2",
"   c #FFFFFFFFFFFF",
".  c #A800A800A800",
"X  c #540054005400",
"o  c #000",
/* pixels*/
"                      ",
"                      ",
". . . . . . . . . . . ",
". . . . . . . . . . . ",
". . .   X X   . . . . ",
". .   X . . X   . . . ",
".   X . . . . X   . . ",
"  X . . . . . . X   . ",
"X   . . . . . .   X . ",
". X   . . . .   X . . ",
". . X   . .   X . . . ",
". . . X     X . . . . ",
". . . . . . . . . . . ",
". . .   X X   . . . . ",
". .   X . . X   . . . ",
".   X . . . . X   . . ",
"  X . . . . . . X   . ",
"X   . . . . . .   X . ",
". X   . . . .   X . . ",
". . X   . .   X . . . ",
". . . X     X . . . . ",
". . . . . . . . . . . ",
". . .   X X   . . . . ",
". .   X . . X   . . . ",
".   X . . . . X   . . ",
"  X . . . . . . X   . ",
"X   . . . . . .   X . ",
". X   . . . .   X . . ",
". . X   . .   X . . . ",
". . . X     X . . . . ",
". . . . . . . . . . . ",
". . . . . . . . . . . ",
"o o o o o o o o o o o ",
"o o o o o o o o o o o "};
