/* XPM */
static char * barA2.r.xpm [] = {
"5 34 3 2",
"   c #FFFFFFFFFFFF",
".  c #000",
"X  c #A800A800A800",
/* pixels*/
"          ",
"        . ",
"X X X . . ",
"X X X . . ",
"X X X . . ",
"X X X . . ",
"X X X . . ",
"X X X . . ",
"X X X . . ",
"X X X . . ",
"X X X . . ",
"X X X . . ",
"X X X . . ",
"X X X . . ",
"X X X . . ",
"X X X . . ",
"X X X . . ",
"X X X . . ",
"X X X . . ",
"X X X . . ",
"X X X . . ",
"X X X . . ",
"X X X . . ",
"X X X . . ",
"X X X . . ",
"X X X . . ",
"X X X . . ",
"X X X . . ",
"X X X . . ",
"X X X . . ",
"X X X . . ",
"X X X . . ",
". . . . . ",
". . . . . "};
