/* XPM */
static char * frame3d-bl.xpm [] = {
"8 8 3 2",
"   c #FFFFFFFFFFFF",
".  c #A800A800A800",
"X  c #000",
/* pixels*/
"    . . .   . X ",
"    . . .   . . ",
"    . . . X X X ",
"    . . . . . . ",
"    . . . . . . ",
"    . . . . . . ",
"  X X X X X X X ",
"X X X X X X X X "};
