/* XPM */
static char * plaid.xpm [] = {
"50 25 2 2",
"   c #000000000000",
".  c #FFFF00000000",
"                          .   .       .   .                           .   .       .   .             ",
".           .           .   .   .   .   .   .           .           .   .   .   .   .   .           ",
"                          .   .       .   .                           .   .       .   .             ",
".           .           .   .   .   .   .   .           .           .   .   .   .   .   .           ",
"                          .   .       .   .                           .   .       .   .             ",
"  .   .   .   .   .   .                       .   .   .   .   .   .                       .   .   . ",
"                          .   .       .   .                           .   .       .   .             ",
".           .           .   .   .   .   .   .           .           .   .   .   .   .   .           ",
"                          .   .       .   .                           .   .       .   .             ",
".           .           .   .   .   .   .   .           .           .   .   .   .   .   .           ",
"                          .   .       .   .                           .   .       .   .             ",
".   .   .       .   .   . . . . .   . . . . .   .   .       .   .   . . . . .   . . . . .   .   .   ",
". .   .   .   .   .   . . . . . .   . . . . . .   .   .   .   .   . . . . . .   . . . . . .   .   . ",
".   .   .       .   .   . . . . .   . . . . .   .   .       .   .   . . . . .   . . . . .   .   .   ",
". .   .   .   .   .   . . . . . .   . . . . . .   .   .   .   .   . . . . . .   . . . . . .   .   . ",
".   .   .       .   .   . . . . .   . . . . .   .   .       .   .   . . . . .   . . . . .   .   .   ",
"                                                                                                    ",
".   .   .       .   .   . . . . .   . . . . .   .   .       .   .   . . . . .   . . . . .   .   .   ",
". .   .   .   .   .   . . . . . .   . . . . . .   .   .   .   .   . . . . . .   . . . . . .   .   . ",
".   .   .       .   .   . . . . .   . . . . .   .   .       .   .   . . . . .   . . . . .   .   .   ",
". .   .   .   .   .   . . . . . .   . . . . . .   .   .   .   .   . . . . . .   . . . . . .   .   . ",
".   .   .       .   .   . . . . .   . . . . .   .   .       .   .   . . . . .   . . . . .   .   .   ",
"                          .   .       .   .                           .   .       .   .             ",
".           .           .   .   .   .   .   .           .           .   .   .   .   .   .           ",
"                          .   .       .   .                           .   .       .   .             "};
