#define xforecast_width 64
#define xforecast_height 64
static char xforecast_bits[] = {
   0x00, 0x00, 0x00, 0x00, 0x00, 0x00, 0x00, 0x00, 0x00, 0x00, 0x00, 0x00,
   0x00, 0x00, 0x00, 0x00, 0x00, 0x00, 0x00, 0x00, 0x00, 0x00, 0x00, 0x00,
   0x00, 0x00, 0x00, 0x00, 0x00, 0x00, 0x00, 0x00, 0x00, 0x00, 0x00, 0x80,
   0xe1, 0x87, 0x00, 0x00, 0x00, 0x00, 0x00, 0xd0, 0x3f, 0xf8, 0x00, 0x00,
   0x00, 0x00, 0x00, 0x78, 0xb6, 0x19, 0x01, 0x03, 0x00, 0x8e, 0x00, 0x07,
   0x00, 0x01, 0xf9, 0x77, 0xe0, 0xd3, 0x83, 0x80, 0x01, 0x04, 0x65, 0x4c,
   0xa0, 0x31, 0x86, 0x10, 0x23, 0x88, 0x67, 0x8c, 0x18, 0x31, 0x84, 0x1d,
   0x20, 0xf8, 0x26, 0x84, 0x1c, 0x90, 0x04, 0x07, 0x24, 0x89, 0x06, 0xb0,
   0x2e, 0x0f, 0x0f, 0x44, 0x7e, 0x4d, 0x80, 0x70, 0x02, 0xc8, 0x08, 0x5c,
   0x0f, 0x61, 0x88, 0x83, 0x4e, 0x42, 0x09, 0xe0, 0x80, 0x43, 0x02, 0x88,
   0x4c, 0x66, 0x0f, 0xe0, 0x80, 0xc3, 0x43, 0x88, 0xf8, 0x3f, 0x00, 0xe0,
   0xc1, 0x07, 0x73, 0x98, 0x00, 0x80, 0x01, 0xf0, 0xe1, 0x07, 0x9c, 0x7f,
   0x00, 0x00, 0x0f, 0xf0, 0xf3, 0x07, 0x00, 0x30, 0x00, 0x00, 0xff, 0xf1,
   0xff, 0x0f, 0x00, 0x00, 0x00, 0x00, 0xfe, 0x7f, 0xc0, 0x0f, 0x60, 0x00,
   0x00, 0x00, 0xfe, 0x0f, 0x00, 0x1e, 0x3e, 0x00, 0x00, 0x00, 0xfc, 0x03,
   0x00, 0xd8, 0x1f, 0x00, 0x00, 0x00, 0xf8, 0x01, 0x00, 0xb0, 0x0f, 0x00,
   0x00, 0x00, 0x78, 0x00, 0x00, 0x70, 0x07, 0x00, 0x00, 0x00, 0x78, 0x00,
   0x00, 0x7c, 0x06, 0x00, 0x00, 0x00, 0x30, 0x00, 0x80, 0x77, 0x07, 0x00,
   0x00, 0x00, 0x10, 0x00, 0xf0, 0x70, 0x07, 0x00, 0x00, 0x00, 0x10, 0x00,
   0x1f, 0x22, 0x07, 0x00, 0x00, 0x00, 0x08, 0xe0, 0x0f, 0x29, 0x06, 0x00,
   0x00, 0x00, 0x08, 0xfc, 0x18, 0x65, 0x06, 0x00, 0x00, 0x00, 0x88, 0x9f,
   0xb9, 0x64, 0x02, 0x00, 0x00, 0x00, 0xf7, 0x0f, 0x31, 0x62, 0x0c, 0x00,
   0x00, 0x80, 0x7b, 0x10, 0x31, 0x61, 0x1c, 0x00, 0x00, 0xe0, 0x79, 0x58,
   0x73, 0x60, 0x7c, 0x00, 0x00, 0xfc, 0x7b, 0x48, 0xe2, 0x3c, 0xfc, 0x07,
   0x80, 0xff, 0x47, 0x6c, 0xc4, 0x3f, 0xfc, 0x00, 0x00, 0xfe, 0xc7, 0x36,
   0x04, 0x0f, 0x3c, 0x00, 0x00, 0xc0, 0x87, 0x10, 0x06, 0x00, 0x0c, 0x00,
   0x00, 0x00, 0x8e, 0x11, 0x06, 0x00, 0x02, 0x00, 0x00, 0x00, 0x0c, 0x03,
   0x03, 0x00, 0x02, 0x00, 0x00, 0x00, 0x08, 0x86, 0x01, 0x06, 0x02, 0x00,
   0x00, 0x00, 0x18, 0x7c, 0x00, 0x06, 0x07, 0x00, 0x00, 0x00, 0x18, 0x00,
   0x80, 0x07, 0x07, 0x00, 0x00, 0x00, 0x38, 0x00, 0xfc, 0x87, 0x0f, 0x00,
   0x00, 0x00, 0x7c, 0x00, 0xfc, 0xc3, 0x0f, 0x00, 0x00, 0x00, 0x7c, 0x00,
   0xf0, 0xc0, 0x1f, 0x00, 0x00, 0x00, 0xfc, 0x01, 0x00, 0xf0, 0x3f, 0x00,
   0x00, 0x00, 0xfe, 0x03, 0x00, 0x08, 0x00, 0x00, 0x00, 0x00, 0x1e, 0x0c,
   0x00, 0x0e, 0x00, 0x00, 0x00, 0x00, 0x06, 0x78, 0xc0, 0x0f, 0x00, 0x00,
   0x00, 0x00, 0x03, 0xf8, 0xff, 0x0f, 0x00, 0x00, 0x00, 0x80, 0x01, 0xf8,
   0xe7, 0x0f, 0x00, 0x00, 0x00, 0x00, 0x00, 0xf8, 0x81, 0x0f, 0x00, 0x00,
   0x00, 0x00, 0x00, 0xf8, 0x01, 0x0f, 0x00, 0x00, 0x00, 0x00, 0x00, 0xf0,
   0x00, 0x1e, 0x00, 0x00, 0x00, 0x00, 0x00, 0xf0, 0x00, 0x1e, 0x00, 0x00,
   0x00, 0x00, 0x00, 0x70, 0x00, 0x1c, 0x00, 0x00, 0x00, 0x00, 0x00, 0x70,
   0x00, 0x18, 0x00, 0x00, 0x00, 0x00, 0x00, 0x60, 0x00, 0x00, 0x00, 0x00,
   0x00, 0x00, 0x00, 0x20, 0x00, 0x00, 0x00, 0x00, 0x00, 0x00, 0x00, 0x00,
   0x00, 0x00, 0x00, 0x00, 0x00, 0x00, 0x00, 0x00, 0x00, 0x00, 0x00, 0x00,
   0x00, 0x00, 0x00, 0x00, 0x00, 0x00, 0x00, 0x00};
