#define club_width 16
#define club_height 20
static char club_bits[] = {
   0x00, 0x00, 0x00, 0x00,
   0xc0, 0x01, 0xe0, 0x03, 0xf0, 0x07, 0xf0, 0x07, 0xf0, 0x07, 0xe0, 0x03,
   0xdc, 0x1d, 0xfe, 0x3f, 0xff, 0x7f, 0xff, 0x7f, 0xff, 0x7f, 0xbe, 0x3e,
   0x9c, 0x1c, 0xc0, 0x01, 0xf0, 0x07, 0x00, 0x00,
   0x00, 0x00, 0x00, 0x00};
