#define thin_heart_width 16
#define thin_heart_height 20
static char thin_heart_bits[] = {
   0x00, 0x00, 0x00, 0x00, 0x38, 0x1c, 0x7c, 0x3e, 0xfe, 0x7f, 0xfe, 0x7f,
   0xfe, 0x7f, 0xfe, 0x7f, 0xfc, 0x3f, 0xfc, 0x3f, 0xf8, 0x1f, 0xf0, 0x0f,
   0xe0, 0x07, 0xc0, 0x03, 0xc0, 0x03, 0x80, 0x01, 0x80, 0x01, 0x00, 0x00,
   0x00, 0x00, 0x00, 0x00};
