#define spade_width 16
#define spade_height 20
static char spade_bits[] = {
   0x00, 0x00, 0x00, 0x00,
   0x80, 0x00, 0xc0, 0x01, 0xe0, 0x03, 0xf0, 0x07, 0xf8, 0x0f, 0xfc, 0x1f,
   0xfc, 0x1f, 0xfe, 0x3f, 0xfe, 0x3f, 0xfe, 0x3f, 0xfe, 0x3f, 0x9c, 0x1c,
   0xc0, 0x01, 0xe0, 0x03, 0xf0, 0x07, 0x00, 0x00,
   0x00, 0x00, 0x00, 0x00};
