#define lleft_width 16
#define lleft_height 16
static char lleft_bits[] = {
   0x00, 0x00, 0x00, 0x60, 0x00, 0x78, 0x00, 0x7e, 0x80, 0x7f, 0xe0, 0x7f,
   0xf8, 0x7f, 0xfe, 0x7f, 0xfe, 0x7f, 0xf8, 0x7f, 0xe0, 0x7f, 0x80, 0x7f,
   0x00, 0x7e, 0x00, 0x78, 0x00, 0x60, 0x00, 0x00};
