#define rad_i_width 14
#define rad_i_height 14
static char rad_i_bits[] = {
   0xe0, 0x01, 0x18, 0x06, 0x04, 0x08, 0x02, 0x10, 0x02, 0x10, 0x01, 0x20,
   0x01, 0x20, 0x01, 0x20, 0x01, 0x20, 0x02, 0x10, 0x02, 0x10, 0x04, 0x08,
   0x18, 0x06, 0xe0, 0x01};
