#define rad_a_width 14
#define rad_a_height 14
static char rad_a_bits[] = {
   0xe0, 0x01, 0x18, 0x06, 0x04, 0x08, 0xe2, 0x11, 0xf2, 0x13, 0xf9, 0x27,
   0xf9, 0x27, 0xf9, 0x27, 0xf9, 0x27, 0xf2, 0x13, 0xe2, 0x11, 0x04, 0x08,
   0x18, 0x06, 0xe0, 0x01};
