/* XPM */
/*                                                                           */
/* xmail - X window system interface to the mail program                     */
/*                                                                           */
/* Copyright 1990-1991 by National Semiconductor Corporation                 */
/*                                                                           */
/* Permission to use, copy, modify, and distribute this software and its     */
/* documentation for any purpose is hereby granted without fee, provided     */
/* that the above copyright notice appear in all copies and that both that   */
/* copyright notice and this permission notice appear in supporting          */
/* documentation, and that the name of National Semiconductor Corporation    */
/* not be used in advertising or publicity pertaining to distribution of the */
/* software without specific, written prior permission.  National            */
/* Semiconductor Corporation makes no representations about the suitability  */
/* of this software for any purpose.  It is provided "as is" without express */
/* or implied warranty.                                                      */
/*                                                                           */
/* NATIONAL SEMICONDUCTOR CORPORATION DISCLAIMS ALL WARRANTIES WITH REGARD   */
/* TO THIS SOFTWARE, INCLUDING ALL IMPLIED WARRANTIES OF MERCHANTABILITY AND */
/* FITNESS, IN NO EVENT SHALL NATIONAL SEMICONDUCTOR CORPORATION BE LIABLE   */
/* FOR ANY SPECIAL, INDIRECT OR CONSEQUENTIAL DAMAGES OR ANY DAMAGES         */
/* WHATSOEVER RESULTING FROM LOSS OF USE, DATA OR PROFITS, WHETHER IN AN     */
/* ACTION OF CONTRACT, NEGLIGENCE OR OTHER TORTIOUS ACTION, ARISING OUT OF   */
/* OR IN CONNECTION WITH THE USE OR PERFORMANCE OF THIS SOFTWARE.            */
/*                                                                           */
/* Author:  Michael C. Wagnitz - National Semiconductor Corporation          */
/*                                                                           */

static char *nomail_xpm [] = {
"64 64 7 1",
"L  c #9898FBFB9898  m white",
"D  c #2E2E8B8B5757  m black",
"B  c lightskyblue   m white",
"W  c tan            m white",
"F  c indianred      m black",
"o  c black          m black",
"M  c darkorange     m white",
"LLLLLLLLLLLLLLLLLLLLLLLLLLLLLLLLLLLLLLLLLLLLLLLLLLLLLLLLLLLLLLLD",
"LLLLLLLLLLLLLLLLLLLLLLLLLLLLLLLLLLLLLLLLLLLLLLLLLLLLLLLLLLLLLLDD",
"LLBBBBBBBBBBBBBBBBBBBBBBBBBBBBBBBBBBBBBBBBBBBBBBBBBBBBBBBBBBBBDD",
"LLBBBBBBBBBBBBBBBBBBBBBBBBBBBBBBBBBBBBBBBBBBBBBBBBBBBBBBBBBBBBDD",
"LLBBBBBBBBBBBBBBBBBBBBBBBBBBBBBBBBBBBBBBBBBBBBBBBBBBBBBBBBBBBBDD",
"LLBBBBBBBBBBBBBBBBBBBBBBBBBBBBBBBBBBBBBBBBBBBBBBBBBBBBBBBBBBBBDD",
"LLBBBBBBBBBBBBBBBBBBBBBBBBBBBBBBBBBBBBBBBBBBBBBBBBBBBBBBBBBBBBDD",
"LLBBBBBBBBBBBBBBBBBBBBBBBBBBBBBBBBBBBBBBBBBBBBBBBBBBBBBBBBBBBBDD",
"LLBBBBBBBBBBBBBBBBBBBBBBBBBBBBBBBBBBBBBBBBBBBBBBBBBBBBBBBBBBBBDD",
"LLBBBBBBBBBBBBBBBBBBBBBBBBBBBBBBBBBBBBBBBBBBBBBBBBBBBBBBBBBBBBDD",
"LLBBBBBBBBBBBBBBBBBBBBBBBBBBBBBBBBBBBBBBBBBBBBBBBBBBBBBBBBBBBBDD",
"LLBBBBBBBBBBBBBBBBBBBBBBBBBBBBBBBBBoooooooBBBBBBBBBBBBBBBBBBBBDD",
"LLBBBBBBBBBBBBBBBBBBBBBBBBBBBBBBBooooooooooBBBBBBBBBBBBBBBBBBBDD",
"LLBBBBBBBBBBBBBBBBBBBBBBBBBBBBBBoooMMMMMMMooBBBBBBBBBBBBBBBBBBDD",
"LLBBBBBBBBBBBBBBBBBBBBBBBBBBBBBooMMMMMMMMMMooBBBBBBBBBBBBBBBBBDD",
"LLBBBBBBBBBBBBBBBBBBBBBBBBBBBoooMMMMMMMMMMMMooBBBBBBBBFBBBBBBBDD",
"LLBBBBBBBBBBBBBBBBBBBBBBBBBBoooMMMMMMMMMMMMMMooBBBBBBFFBBBBBBBDD",
"LLBBBBBBBBBBBBBBBBBBBBBBBBBooMMMMMMMMMMMMMMMMooBBBBBFFFBBBBBBBDD",
"LLBBBBBBBBBBBBBBBBBBBBBBBBooMMoooMMMMMMMMMMMoooBBBBoFFFBBBBBBBDD",
"LLBBBBBBBBBBBBBBBBBBBBBBBooooooooMMMMMMMMMMooMoBBBooFFFBBBBBBBDD",
"LLBBBBBBBBBBBBBBBBBBBBBBooooooooooMMMMMMMMooMMoBBooBFFFBBBBBBBDD",
"LLBBBBBBBBBBBBBBBBBBBBBoooooFoMMMoooMMMMMooMMMoBooBBFFFBBBBBBBDD",
"LLBBBBBBBBBBBBBBBBBBBBoooMMoFoooMMoooMMMooMMMMoooBBBFFBBBBBBBBDD",
"LLBBBBBBBBBBBBBBBBBBBoooMMMoFooMMMMooMMooMMMMMooBBBBFBBBBBBBBBDD",
"LLBBBBBBBBBBBBBBBBBBBooMMMMoooMMMMMMooooMMMMMooBBBBBBBBBBBBBBBDD",
"LLBBBBBBBBBBBBBBBBBBBoMMMMMMMMMMMMMMoooMMMMMoooBBBBBBBBBBBBBBBDD",
"LLBBBBBBBBBBBBBBBBBBBoMMMMooMooMMMMMooMMMMMooMoBBBBBBBBBBBBBBBDD",
"LLBBBBBBBBBBBBBBBBBBBoMMMoMoooMoMMMMoMMMMMooMMoBBBBBBBBBBBBBBBDD",
"LLBBBBBBBBBBBBBBBBBBBoMMoMMMoMMMoMMMoMMMMooMMMoBBBBBBBBBBBBBBBDD",
"LLBBBBBBBBBBBBBBBBBBBoMMMMMoMoMMMMMMoMMMooMMMMoBBBBBBBBBBBBBBBDD",
"LLBBBBBBBBBBBBBBBBBBBoMoMoMoMoMoMoMMoMMMoMMMMMoBBBBBBBBBBBBBBBDD",
"LLBBBBBBBBBBBBBBBBBBBoMMoMoMoMoMoMMMoMMMMMMMMooBBBBBBBBBBBBBBBDD",
"LLBBBBBBBBBBBBBBBBBBBoMMMMMMMMMMMMMMoMMMMMMMooBBBBBBBBBBBBBBBBDD",
"LLBBBBBBBBBBBBBBBBBBBoMMMMMMMMMMMMMMoMMMMMMooBBBBBBBBBBBBBBBBBDD",
"LLBBBBBBBBBBBBBBBBBBBoMoMoMMoMMoMoMMoMMMMMooBBBBBBBBBBBBBBBBBBDD",
"LLBBBBBBBBBBBBBBBBBBBoMoooMoMoMoMoMMoMMMMooBBBBBBBBBBBBBBBBBBBDD",
"LLBBBBBBBBBBBBBBBBBBBoMoMoMoooMoMoMMoMMMooBBBBBBBBBBBBBBBBBBBBDD",
"LLBBBBBBBBBBBBBBBBBBBoMoMoMoMoMoMooMoMMooBBBBBBBBBBBBBBBBBBBBBDD",
"LLBBBBBBBBBBBBBBBBBBBoMMMMMMMMMMMMMMoMoooBBBBBBBBBBBBBBBBBBBBBDD",
"LLBBBBBBBBBBBBBBBBBBBoMMMMMMMMMMMMMMoooWoBBBBBBBBBBBBBBBBBBBBBDD",
"LLBBBBBBBBBBBBBBBBBBBoooooooooooooooooWWoBBBBBBBBBBBBBBBBBBBBBDD",
"LLBBBBBBBBBBBBBBBBBBBooooooooooooooooWWWoBBBBBBBBBBBBBBBBBBBBBDD",
"LLBBBBBBBBBBBBBBBBBBBBBBBBoWWWWWWWWoWWWWoBBBBBBBBBBBBBBBBBBBBBDD",
"LLBBBBBBBBBBBBBBBBBBBBBBBBoWWWWWWWWoWWWWoBBBBBBBBBBBBBBBBBBBBBDD",
"LLBBBBBBBBBBBBBBBBBBBBBBBBoWWWWWWWWoWWWWoBBBBBBBBBBBBBBBBBBBBBDD",
"LLBBBBBBBBBBBBBBBBBBBBBBBBoWWWWWWWWoWWWWoBBBBBBBBBBBBBBBBBBBBBDD",
"LLBBBBBBBBBBBBBBBBBBBBBBBBoWWWWWWWWoWWWWoBBBBBBBBBBBBBBBBBBBBBDD",
"LLBBBBBBBBBBBBBBBBBBBBBBBBoWWWWWWWWoWWWWoBBBBBBBBBBBBBBBBBBBBBDD",
"LLBBBBBBBBBBBBBBBBBLBBBBBBoWWWWWWWWoWWWWoBBBBBBBBBBBBBBBBBBLBBDD",
"LLBBLBLBBBBLBBBLLBLLBLBLBBoWWWWWWWWoWWWWoBBLBLBBBBBBBBBBBBLBBBDD",
"LLBBLBLBBBLLBLBBLBBLBLBLBBoWWWWWWWWoWWWWoBLBBLLBBBLBBLBBBBLBBBDD",
"LLBBLDDLDLLDDLDDLLDLDDLDDLoWWWWWWWWoWWWWoLDLDDLDDDLDDLLDDDLLBBDD",
"LLBBDLLLDLLLDLDLDLDLDDDLDLoWWWWWWWWoWWWWDLLDDDLDDLLDLDLDLLDLBBDD",
"LLBBDLDLDDDLDLDDDLDDDLLDLDoWWWWWWWWoWWWLDLDLLDDLDLDLDDDDLDDDBBDD",
"LLBBLDDLDLDDDDDLDDLLDLLDLDoWLWLWLWWoWWLLDLDLDDDDDDLLDLDLLLDLBBDD",
"LLBBDDLDDDLLDLDLDDLDDLDDLDoWLWWLWLWoWLLDDDDLDLLLDDLDDLDLLDLDBBDD",
"LLBBLLDLLDLLLLLDDLLDLLDLLLLLDLDLDDLLDDLLLLLDDLLLDLLLLLLLLLDDBBDD",
"LLBBLLLDLLDLDDLLLDLLDLLDDLLLLDDLDLLLDLDDLDLLLLDDLLDDLDLDDLDLBBDD",
"LLBBDLDLDLDDLLLLDDDLLDLLDLLLDLDLLLDLLLDDLLLDLDDLLLDLLLDLLLLDBBDD",
"LLBBLDLLLLLLDLDDLLLDLLDLLDLLDLDLLDLLDLLLDDLDLLLDDLLLDDLDLDLLBBDD",
"LLBBBBBBBBBBBBBBBBBBBBBBBBBBBBBBBBBBBBBBBBBBBBBBBBBBBBBBBBBBBBDD",
"LLBBBBBBBBBBBBBBBBBBBBBBBBBBBBBBBBBBBBBBBBBBBBBBBBBBBBBBBBBBBBDD",
"LDDDDDDDDDDDDDDDDDDDDDDDDDDDDDDDDDDDDDDDDDDDDDDDDDDDDDDDDDDDDDDD",
"DDDDDDDDDDDDDDDDDDDDDDDDDDDDDDDDDDDDDDDDDDDDDDDDDDDDDDDDDDDDDDDD"};
