#define xtalk_width 48
#define xtalk_height 48
static char xtalk_bits[] = {
   0x00, 0x00, 0x00, 0x00, 0x00, 0x00, 0x00, 0x00, 0x00, 0x00, 0x00, 0x00,
   0x00, 0xfc, 0xff, 0xff, 0xff, 0x03, 0x00, 0x03, 0x00, 0x00, 0x00, 0x0c,
   0x80, 0x00, 0x00, 0x00, 0x00, 0x10, 0x40, 0x00, 0x00, 0x00, 0x00, 0x20,
   0x40, 0x00, 0x00, 0x00, 0x00, 0x20, 0x20, 0x00, 0x00, 0x00, 0x00, 0x40,
   0x20, 0x04, 0x00, 0x00, 0x00, 0x40, 0x20, 0x84, 0x12, 0x40, 0x04, 0x40,
   0x20, 0xfc, 0xfe, 0xfc, 0x7e, 0x40, 0x20, 0x00, 0x40, 0x30, 0x20, 0x40,
   0x20, 0x00, 0x00, 0x00, 0x00, 0x40, 0x20, 0x00, 0x00, 0x00, 0x00, 0x40,
   0x20, 0x00, 0x00, 0x00, 0x00, 0x40, 0x20, 0x00, 0x00, 0x00, 0x00, 0x40,
   0x20, 0x00, 0x00, 0x00, 0x00, 0x40, 0x20, 0x80, 0x80, 0x10, 0x04, 0x40,
   0x20, 0xfc, 0xe7, 0xf7, 0x3f, 0x40, 0x20, 0x00, 0x00, 0x00, 0x00, 0x40,
   0x20, 0x00, 0x00, 0x00, 0x00, 0x40, 0x20, 0x00, 0x00, 0x00, 0x00, 0x40,
   0x20, 0x00, 0x00, 0x00, 0x00, 0x40, 0x20, 0x00, 0x00, 0x00, 0x00, 0x40,
   0x20, 0x00, 0x00, 0x00, 0x00, 0x40, 0x20, 0x00, 0x00, 0x00, 0x00, 0x40,
   0x20, 0x00, 0x00, 0x00, 0x00, 0x40, 0x20, 0x00, 0x00, 0x00, 0x00, 0x40,
   0x40, 0x00, 0x00, 0x00, 0x00, 0x20, 0x40, 0x00, 0x00, 0x00, 0x00, 0x20,
   0x80, 0x00, 0x00, 0x00, 0x00, 0x10, 0x00, 0x03, 0x00, 0x00, 0x00, 0x0c,
   0x00, 0xfc, 0x00, 0xfe, 0xff, 0x03, 0x00, 0x80, 0x80, 0x01, 0x00, 0x00,
   0x00, 0x40, 0x60, 0x00, 0x00, 0x00, 0x00, 0x20, 0x18, 0x00, 0x00, 0x00,
   0x00, 0x10, 0x04, 0x00, 0x00, 0x00, 0x00, 0x08, 0x03, 0x00, 0x00, 0x00,
   0x00, 0xc4, 0x00, 0x00, 0x00, 0x00, 0x00, 0x33, 0x00, 0x00, 0x00, 0x00,
   0x80, 0x0c, 0x00, 0x00, 0x00, 0x00, 0x40, 0x02, 0x00, 0x00, 0x00, 0x00,
   0xa0, 0x01, 0x00, 0x00, 0x00, 0x00, 0x70, 0x00, 0x00, 0x00, 0x00, 0x00,
   0x18, 0x00, 0x00, 0x00, 0x00, 0x00, 0x04, 0x00, 0x00, 0x00, 0x00, 0x00,
   0x00, 0x00, 0x00, 0x00, 0x00, 0x00, 0x00, 0x00, 0x00, 0x00, 0x00, 0x00};
